<svg xmlns="http://www.w3.org/2000/svg" xmlns:xlink="http://www.w3.org/1999/xlink" width="429" height="117" viewBox="0 0 429 117">
  <defs>
    <clipPath id="clip-path">
      <rect id="Rectangle_601" data-name="Rectangle 601" width="429" height="117" transform="translate(-1 809)" fill="#fff" stroke="#707070" stroke-width="1"/>
    </clipPath>
  </defs>
  <g id="Mask_Group_1" data-name="Mask Group 1" transform="translate(1 -809)" opacity="0.6" clip-path="url(#clip-path)">
    <g id="Group_4458" data-name="Group 4458" transform="translate(-4573.858 -2100.147)">
      <path id="Path_13143" data-name="Path 13143" d="M4443.231,2910.881c-3.281-2.083-25.487.03-25.487.03-7.9.6,8.975,27.861,11.508,26.964s17.26-24.911,13.979-26.994" fill="#caba9f"/>
      <path id="Path_13144" data-name="Path 13144" d="M4451.279,2910.871c-1.641-1.189-7.734,14.021-10.16,16.7s-6.055,9.547-5.011,10.313c.313.229.814.13,1.361-.12a5.607,5.607,0,0,0,2.985-3.646c1.669-5.927,12.289-22.19,10.825-23.252" fill="#caba9f"/>
      <path id="Path_13145" data-name="Path 13145" d="M4454.008,2917.948c.146-2.832,1.971-3.579,1.971-3.579a4.9,4.9,0,0,0,.939-.957,1.019,1.019,0,0,0-1.588-1.266,10.245,10.245,0,0,0-1.81,2.672c-1.19,2.536-9.668,16.929-9.442,19.313s-2.659,4.21.452,3.877c1.229-.131,1.246-7.488,4.075-10.547l2.828-3.058s2.429-3.623,2.575-6.455" fill="#caba9f"/>
      <path id="Path_13146" data-name="Path 13146" d="M4478.39,2910.84c-1.462,1.066,9.2,17.3,10.879,23.227a5.611,5.611,0,0,0,2.994,3.639c.548.248,1.049.346,1.361.116,1.043-.769-2.6-7.62-5.035-10.3s-8.561-17.875-10.2-16.681" fill="#caba9f"/>
      <path id="Path_13147" data-name="Path 13147" d="M4485.646,2934.083c.221-2.385-8.292-16.758-9.487-19.291a10.248,10.248,0,0,0-1.816-2.668,1.019,1.019,0,0,0-1.585,1.27,4.889,4.889,0,0,0,.941.954s1.827.743,1.979,3.575,2.59,6.449,2.59,6.449l2.836,3.051c2.835,3.053,2.87,10.41,4.1,10.538,3.112.325.222-1.493.443-3.878" fill="#caba9f"/>
      <path id="Path_13148" data-name="Path 13148" d="M4406.688,2910.924c-1.462,1.066,9.2,17.3,10.879,23.227a5.612,5.612,0,0,0,2.994,3.639c.548.248,1.049.346,1.361.116,1.043-.769-2.6-7.62-5.035-10.3s-8.561-17.875-10.2-16.681" fill="#caba9f"/>
      <path id="Path_13149" data-name="Path 13149" d="M4413.944,2934.167c.221-2.385-8.292-16.758-9.487-19.291a10.26,10.26,0,0,0-1.816-2.668,1.019,1.019,0,0,0-1.585,1.27,4.879,4.879,0,0,0,.941.954s1.827.743,1.979,3.575,2.59,6.449,2.59,6.449l2.836,3.051c2.835,3.053,2.87,10.41,4.1,10.538,3.112.325.222-1.493.443-3.878" fill="#caba9f"/>
      <path id="Path_13150" data-name="Path 13150" d="M4464.562,2911.235c-2.533.9-17.26,24.912-13.979,26.994s25.487-.029,25.487-.029c7.9-.6-8.975-27.862-11.508-26.965m4.315,8.037s0,.559-.163,3.633c-.12,2.242,3,6.563,4.7,8.737a4.8,4.8,0,0,1,1.019,3.085l-.007.3c-.054,2.068-6.816,2.915-15.816,1.807s-1.91-8.1-.4-11.234c1.029-2.141,4.119-5.877,5.972-8.027a2.009,2.009,0,0,1,2.966-.087Z" fill="#caba9f"/>
      <path id="Path_13151" data-name="Path 13151" d="M4465.333,2923.891s-1.09-.421-3.323,2.18-6.279,7.413-2,7.884,7.965-.066,10.285.127-2.437-4.273-2.746-6.117-.592-4.24-2.213-4.074" fill="#caba9f"/>
      <path id="Path_13152" data-name="Path 13152" d="M4514.773,2910.8c-3.282-2.083-25.487.03-25.487.03-7.9.6,8.975,27.861,11.508,26.964s17.26-24.911,13.979-26.994" fill="#caba9f"/>
      <path id="Path_13153" data-name="Path 13153" d="M4522.822,2910.788c-1.641-1.19-7.734,14.02-10.16,16.7s-6.055,9.546-5.011,10.312c.313.23.814.131,1.361-.119a5.611,5.611,0,0,0,2.985-3.646c1.669-5.928,12.289-22.19,10.825-23.252" fill="#caba9f"/>
      <path id="Path_13154" data-name="Path 13154" d="M4525.55,2917.865c.146-2.832,1.971-3.579,1.971-3.579a4.88,4.88,0,0,0,.938-.957,1.019,1.019,0,0,0-1.587-1.266,10.245,10.245,0,0,0-1.81,2.672c-1.19,2.536-9.668,16.929-9.442,19.313s-2.659,4.21.452,3.877c1.229-.131,1.246-7.488,4.075-10.547l2.828-3.058s2.429-3.623,2.575-6.455" fill="#caba9f"/>
      <path id="Path_13155" data-name="Path 13155" d="M4549.933,2910.756c-1.462,1.066,9.2,17.3,10.879,23.227a5.615,5.615,0,0,0,2.994,3.639c.548.248,1.049.346,1.362.116,1.042-.769-2.6-7.62-5.036-10.3s-8.561-17.875-10.2-16.681" fill="#caba9f"/>
      <path id="Path_13156" data-name="Path 13156" d="M4557.189,2934c.221-2.385-8.292-16.758-9.487-19.291a10.256,10.256,0,0,0-1.816-2.668,1.019,1.019,0,0,0-1.585,1.27,4.889,4.889,0,0,0,.941.954s1.827.743,1.979,3.575,2.59,6.449,2.59,6.449l2.836,3.051c2.835,3.053,2.87,10.41,4.1,10.538,3.112.325.222-1.493.443-3.878" fill="#caba9f"/>
      <path id="Path_13157" data-name="Path 13157" d="M4536.1,2911.152c-2.533.9-17.26,24.912-13.979,26.994s25.487-.029,25.487-.029c7.9-.6-8.975-27.862-11.508-26.965m4.315,8.037s0,.559-.163,3.633c-.12,2.242,3,6.563,4.7,8.737a4.8,4.8,0,0,1,1.02,3.085l-.008.3c-.054,2.068-6.816,2.915-15.816,1.807s-1.91-8.1-.4-11.234c1.029-2.141,4.119-5.877,5.972-8.027a2.009,2.009,0,0,1,2.966-.087Z" fill="#caba9f"/>
      <path id="Path_13158" data-name="Path 13158" d="M4536.875,2923.807s-1.09-.421-3.323,2.18-6.279,7.413-2,7.884,7.965-.066,10.284.127-2.436-4.273-2.745-6.117-.592-4.24-2.213-4.074" fill="#caba9f"/>
      <path id="Path_13159" data-name="Path 13159" d="M4586.316,2910.714c-3.281-2.083-25.487.03-25.487.03-7.9.6,8.975,27.861,11.508,26.964s17.26-24.911,13.979-26.994" fill="#caba9f"/>
      <path id="Path_13160" data-name="Path 13160" d="M4594.364,2910.7c-1.641-1.19-7.734,14.02-10.16,16.7s-6.055,9.546-5.011,10.312c.313.23.814.131,1.361-.119a5.61,5.61,0,0,0,2.985-3.646c1.669-5.928,12.289-22.19,10.825-23.252" fill="#caba9f"/>
      <path id="Path_13161" data-name="Path 13161" d="M4597.093,2917.781c.146-2.832,1.971-3.579,1.971-3.579a4.88,4.88,0,0,0,.938-.957,1.019,1.019,0,0,0-1.587-1.266,10.259,10.259,0,0,0-1.81,2.672c-1.189,2.536-9.668,16.929-9.442,19.313s-2.659,4.21.452,3.877c1.229-.131,1.247-7.488,4.075-10.547l2.828-3.058s2.429-3.623,2.575-6.455" fill="#caba9f"/>
      <path id="Path_13162" data-name="Path 13162" d="M4621.475,2910.672c-1.462,1.066,9.2,17.3,10.879,23.227a5.615,5.615,0,0,0,2.994,3.639c.548.249,1.049.346,1.361.116,1.043-.769-2.6-7.62-5.035-10.3s-8.561-17.875-10.2-16.681" fill="#caba9f"/>
      <path id="Path_13163" data-name="Path 13163" d="M4628.731,2933.915c.221-2.384-8.292-16.758-9.487-19.29a10.26,10.26,0,0,0-1.816-2.668,1.019,1.019,0,0,0-1.585,1.27,4.889,4.889,0,0,0,.941.954s1.827.743,1.979,3.575,2.59,6.448,2.59,6.448l2.836,3.052c2.835,3.052,2.87,10.409,4.1,10.538,3.112.324.222-1.494.443-3.879" fill="#caba9f"/>
      <path id="Path_13164" data-name="Path 13164" d="M4607.647,2911.068c-2.533.9-17.26,24.912-13.979,26.994s25.487-.029,25.487-.029c7.9-.6-8.975-27.862-11.508-26.965m4.315,8.037s0,.559-.163,3.633c-.12,2.242,3,6.563,4.7,8.737a4.8,4.8,0,0,1,1.02,3.085l-.008.3c-.054,2.068-6.816,2.915-15.816,1.807s-1.91-8.1-.4-11.234c1.029-2.141,4.119-5.877,5.972-8.027a2.009,2.009,0,0,1,2.966-.087Z" fill="#caba9f"/>
      <path id="Path_13165" data-name="Path 13165" d="M4608.418,2923.723s-1.091-.42-3.323,2.181-6.279,7.412-2,7.883,7.965-.065,10.284.128-2.436-4.273-2.746-6.117-.591-4.24-2.212-4.075" fill="#caba9f"/>
      <path id="Path_13166" data-name="Path 13166" d="M4657.859,2910.63c-3.282-2.083-25.487.03-25.487.03-7.9.6,8.975,27.861,11.508,26.964s17.26-24.911,13.979-26.994" fill="#caba9f"/>
      <path id="Path_13167" data-name="Path 13167" d="M4665.907,2910.62c-1.641-1.19-7.734,14.02-10.16,16.7s-6.055,9.546-5.011,10.312c.313.23.814.131,1.361-.119a5.61,5.61,0,0,0,2.985-3.646c1.669-5.928,12.289-22.19,10.825-23.252" fill="#caba9f"/>
      <path id="Path_13168" data-name="Path 13168" d="M4668.635,2917.7c.146-2.832,1.971-3.579,1.971-3.579a4.877,4.877,0,0,0,.938-.957,1.019,1.019,0,0,0-1.587-1.266,10.259,10.259,0,0,0-1.81,2.672c-1.19,2.536-9.668,16.929-9.442,19.313s-2.659,4.21.452,3.877c1.229-.131,1.246-7.488,4.075-10.547l2.828-3.058s2.429-3.623,2.575-6.455" fill="#caba9f"/>
      <path id="Path_13169" data-name="Path 13169" d="M4693.018,2910.589c-1.461,1.066,9.2,17.3,10.879,23.227a5.615,5.615,0,0,0,2.994,3.639c.548.249,1.049.346,1.361.116,1.043-.769-2.6-7.62-5.035-10.3s-8.561-17.875-10.2-16.681" fill="#caba9f"/>
      <path id="Path_13170" data-name="Path 13170" d="M4700.274,2933.832c.221-2.385-8.292-16.758-9.487-19.291a10.256,10.256,0,0,0-1.816-2.668,1.019,1.019,0,0,0-1.585,1.27,4.879,4.879,0,0,0,.941.954s1.827.743,1.979,3.575,2.59,6.449,2.59,6.449l2.836,3.051c2.835,3.053,2.87,10.41,4.1,10.538,3.112.325.222-1.493.443-3.878" fill="#caba9f"/>
      <path id="Path_13171" data-name="Path 13171" d="M4679.189,2910.984c-2.533.9-17.26,24.912-13.979,26.994s25.487-.029,25.487-.029c7.9-.6-8.975-27.862-11.508-26.965m4.315,8.037s0,.559-.163,3.633c-.12,2.242,3,6.563,4.7,8.737a4.8,4.8,0,0,1,1.02,3.085l-.008.3c-.053,2.068-6.816,2.915-15.816,1.807s-1.909-8.1-.4-11.234c1.029-2.141,4.119-5.877,5.972-8.027a2.009,2.009,0,0,1,2.966-.087Z" fill="#caba9f"/>
      <path id="Path_13172" data-name="Path 13172" d="M4679.961,2923.64s-1.09-.421-3.323,2.18-6.279,7.413-2,7.884,7.965-.066,10.285.127-2.437-4.273-2.747-6.117-.591-4.24-2.212-4.074" fill="#caba9f"/>
      <path id="Path_13173" data-name="Path 13173" d="M4728.967,2910.547c-3.281-2.083-25.487.03-25.487.03-7.9.6,8.975,27.861,11.508,26.964s17.26-24.911,13.979-26.994" fill="#caba9f"/>
      <path id="Path_13174" data-name="Path 13174" d="M4737.016,2910.537c-1.641-1.19-7.734,14.02-10.16,16.7s-6.055,9.546-5.011,10.312c.313.23.814.131,1.361-.119a5.609,5.609,0,0,0,2.985-3.646c1.669-5.928,12.289-22.19,10.825-23.252" fill="#caba9f"/>
      <path id="Path_13175" data-name="Path 13175" d="M4739.744,2917.614c.146-2.832,1.971-3.579,1.971-3.579a4.9,4.9,0,0,0,.939-.957,1.019,1.019,0,0,0-1.588-1.266,10.248,10.248,0,0,0-1.81,2.673c-1.189,2.535-9.668,16.928-9.442,19.312s-2.659,4.21.452,3.878c1.229-.132,1.246-7.489,4.075-10.548l2.828-3.058s2.429-3.623,2.575-6.455" fill="#caba9f"/>
      <path id="Path_13176" data-name="Path 13176" d="M4764.127,2910.506c-1.461,1.066,9.2,17.3,10.879,23.227a5.615,5.615,0,0,0,2.994,3.639c.548.249,1.049.346,1.362.116,1.042-.769-2.6-7.62-5.036-10.3s-8.561-17.875-10.2-16.681" fill="#caba9f"/>
      <path id="Path_13177" data-name="Path 13177" d="M4771.383,2933.749c.221-2.385-8.292-16.758-9.487-19.291a10.256,10.256,0,0,0-1.816-2.668,1.019,1.019,0,0,0-1.585,1.27,4.879,4.879,0,0,0,.941.954s1.827.743,1.979,3.575,2.59,6.449,2.59,6.449l2.836,3.051c2.835,3.053,2.869,10.41,4.1,10.538,3.112.325.222-1.493.443-3.878" fill="#caba9f"/>
      <path id="Path_13178" data-name="Path 13178" d="M4750.3,2910.9c-2.533.9-17.26,24.912-13.979,26.994s25.487-.029,25.487-.029c7.9-.6-8.975-27.862-11.508-26.965m4.315,8.037s0,.559-.163,3.633c-.12,2.242,3,6.563,4.7,8.737a4.8,4.8,0,0,1,1.02,3.085l-.008.3c-.054,2.068-6.816,2.915-15.816,1.807s-1.909-8.1-.4-11.234c1.029-2.141,4.119-5.877,5.972-8.027a2.009,2.009,0,0,1,2.966-.087Z" fill="#caba9f"/>
      <path id="Path_13179" data-name="Path 13179" d="M4751.069,2923.557s-1.09-.421-3.323,2.18-6.279,7.413-2,7.884,7.965-.066,10.284.127-2.436-4.273-2.745-6.117-.592-4.24-2.213-4.074" fill="#caba9f"/>
      <path id="Path_13180" data-name="Path 13180" d="M4800.51,2910.463c-3.282-2.083-25.487.03-25.487.03-7.9.6,8.975,27.861,11.508,26.964s17.26-24.911,13.979-26.994" fill="#caba9f"/>
      <path id="Path_13181" data-name="Path 13181" d="M4808.558,2910.454c-1.641-1.19-7.734,14.02-10.16,16.7s-6.055,9.546-5.011,10.312c.313.23.814.131,1.361-.119a5.613,5.613,0,0,0,2.986-3.646c1.668-5.928,12.288-22.19,10.824-23.252" fill="#caba9f"/>
      <path id="Path_13182" data-name="Path 13182" d="M4811.287,2917.53c.145-2.832,1.971-3.579,1.971-3.579a4.877,4.877,0,0,0,.938-.957,1.019,1.019,0,0,0-1.587-1.266,10.25,10.25,0,0,0-1.81,2.673c-1.189,2.535-9.668,16.928-9.442,19.312s-2.659,4.21.452,3.878c1.229-.132,1.246-7.489,4.074-10.548l2.829-3.058s2.429-3.623,2.575-6.455" fill="#caba9f"/>
      <path id="Path_13183" data-name="Path 13183" d="M4835.669,2910.422c-1.462,1.066,9.2,17.3,10.879,23.227a5.615,5.615,0,0,0,2.994,3.639c.548.249,1.049.346,1.361.116,1.043-.769-2.6-7.62-5.035-10.3s-8.561-17.875-10.2-16.681" fill="#caba9f"/>
      <path id="Path_13184" data-name="Path 13184" d="M4842.925,2933.665c.221-2.385-8.292-16.758-9.487-19.291a10.256,10.256,0,0,0-1.816-2.668,1.019,1.019,0,0,0-1.585,1.27,4.879,4.879,0,0,0,.941.954s1.827.743,1.979,3.575,2.59,6.449,2.59,6.449l2.836,3.051c2.835,3.053,2.87,10.41,4.1,10.538,3.112.325.222-1.493.443-3.878" fill="#caba9f"/>
      <path id="Path_13185" data-name="Path 13185" d="M4821.841,2910.818c-2.533.9-17.26,24.912-13.979,26.994s25.487-.029,25.487-.029c7.9-.6-8.976-27.862-11.508-26.965m4.315,8.037s0,.559-.164,3.633c-.119,2.242,3,6.563,4.7,8.737a4.8,4.8,0,0,1,1.019,3.085l-.008.3c-.053,2.068-6.815,2.915-15.815,1.807s-1.91-8.1-.4-11.234c1.029-2.141,4.119-5.877,5.972-8.027a2.008,2.008,0,0,1,2.965-.087Z" fill="#caba9f"/>
      <path id="Path_13186" data-name="Path 13186" d="M4822.612,2923.473s-1.09-.421-3.323,2.18-6.279,7.413-2,7.884,7.965-.066,10.285.127-2.437-4.273-2.746-6.117-.592-4.24-2.213-4.074" fill="#caba9f"/>
      <path id="Path_13187" data-name="Path 13187" d="M4872.053,2910.379c-3.282-2.083-25.487.03-25.487.03-7.9.6,8.975,27.861,11.508,26.964s17.261-24.911,13.979-26.994" fill="#caba9f"/>
      <path id="Path_13188" data-name="Path 13188" d="M4880.1,2910.37c-1.641-1.19-7.734,14.02-10.16,16.7s-6.056,9.546-5.011,10.312c.313.23.814.131,1.361-.119a5.609,5.609,0,0,0,2.985-3.646c1.669-5.928,12.289-22.19,10.825-23.252" fill="#caba9f"/>
      <path id="Path_13189" data-name="Path 13189" d="M4882.829,2917.447c.146-2.832,1.971-3.579,1.971-3.579a4.877,4.877,0,0,0,.938-.957,1.019,1.019,0,0,0-1.587-1.266,10.248,10.248,0,0,0-1.81,2.673c-1.189,2.535-9.668,16.928-9.442,19.312s-2.659,4.21.452,3.878c1.229-.132,1.247-7.489,4.075-10.548l2.828-3.058s2.429-3.623,2.575-6.455" fill="#caba9f"/>
      <path id="Path_13190" data-name="Path 13190" d="M4907.212,2910.338c-1.462,1.066,9.2,17.3,10.879,23.227a5.612,5.612,0,0,0,2.994,3.639c.548.249,1.049.346,1.361.116,1.043-.769-2.6-7.62-5.035-10.3s-8.561-17.875-10.2-16.681" fill="#caba9f"/>
      <path id="Path_13191" data-name="Path 13191" d="M4914.468,2933.581c.221-2.385-8.292-16.758-9.487-19.291a10.256,10.256,0,0,0-1.816-2.668,1.019,1.019,0,0,0-1.585,1.27,4.879,4.879,0,0,0,.941.954s1.827.743,1.979,3.575,2.59,6.449,2.59,6.449l2.836,3.051c2.835,3.053,2.87,10.41,4.1,10.538,3.111.325.221-1.493.442-3.878" fill="#caba9f"/>
      <path id="Path_13192" data-name="Path 13192" d="M4893.384,2910.734c-2.533.9-17.26,24.912-13.979,26.994s25.487-.029,25.487-.029c7.9-.6-8.975-27.862-11.508-26.965m4.315,8.037s0,.559-.163,3.633c-.12,2.242,3,6.563,4.7,8.737a4.8,4.8,0,0,1,1.02,3.085l-.008.3c-.054,2.068-6.816,2.915-15.816,1.807s-1.91-8.1-.4-11.234c1.029-2.141,4.119-5.877,5.972-8.027a2.008,2.008,0,0,1,2.965-.087Z" fill="#caba9f"/>
      <path id="Path_13193" data-name="Path 13193" d="M4894.155,2923.389s-1.091-.421-3.323,2.18-6.279,7.413-2,7.884,7.965-.066,10.284.127-2.436-4.273-2.746-6.117-.592-4.24-2.212-4.074" fill="#caba9f"/>
      <path id="Path_13194" data-name="Path 13194" d="M4943.6,2910.3c-3.282-2.083-25.487.03-25.487.03-7.9.6,8.975,27.861,11.508,26.964s17.261-24.911,13.979-26.994" fill="#caba9f"/>
      <path id="Path_13195" data-name="Path 13195" d="M4951.644,2910.286c-1.641-1.19-7.734,14.02-10.16,16.705s-6.055,9.546-5.011,10.312c.313.23.814.131,1.361-.119a5.609,5.609,0,0,0,2.985-3.646c1.669-5.928,12.289-22.19,10.825-23.252" fill="#caba9f"/>
      <path id="Path_13196" data-name="Path 13196" d="M4954.372,2917.363c.146-2.832,1.971-3.579,1.971-3.579a4.877,4.877,0,0,0,.938-.957,1.019,1.019,0,0,0-1.587-1.266,10.25,10.25,0,0,0-1.81,2.673c-1.189,2.535-9.668,16.928-9.442,19.312s-2.659,4.21.452,3.878c1.229-.132,1.247-7.489,4.075-10.548l2.828-3.058s2.43-3.623,2.575-6.455" fill="#caba9f"/>
      <path id="Path_13197" data-name="Path 13197" d="M4978.755,2910.254c-1.462,1.067,9.2,17.3,10.879,23.228a5.617,5.617,0,0,0,2.994,3.639c.548.249,1.049.346,1.361.116,1.043-.77-2.6-7.621-5.035-10.3s-8.561-17.875-10.2-16.682" fill="#caba9f"/>
      <path id="Path_13198" data-name="Path 13198" d="M4986.011,2933.5c.221-2.385-8.292-16.758-9.487-19.291a10.256,10.256,0,0,0-1.816-2.668,1.019,1.019,0,0,0-1.585,1.27,4.879,4.879,0,0,0,.941.954s1.827.743,1.979,3.575,2.59,6.449,2.59,6.449l2.836,3.051c2.835,3.053,2.869,10.41,4.1,10.538,3.112.325.222-1.493.443-3.878" fill="#caba9f"/>
      <path id="Path_13199" data-name="Path 13199" d="M4964.926,2910.65c-2.533.9-17.26,24.912-13.979,26.994s25.487-.029,25.487-.029c7.9-.6-8.975-27.862-11.508-26.965m4.315,8.037s0,.559-.163,3.633c-.12,2.242,3,6.563,4.7,8.737a4.8,4.8,0,0,1,1.02,3.085l-.008.3c-.053,2.068-6.816,2.915-15.816,1.807s-1.909-8.1-.4-11.234c1.029-2.141,4.119-5.877,5.972-8.027a2.01,2.01,0,0,1,2.966-.087Z" fill="#caba9f"/>
      <path id="Path_13200" data-name="Path 13200" d="M4965.7,2923.306s-1.091-.421-3.323,2.18-6.279,7.413-2,7.884,7.965-.066,10.284.127-2.436-4.273-2.746-6.117-.591-4.24-2.212-4.074" fill="#caba9f"/>
      <path id="Path_13201" data-name="Path 13201" d="M5015.813,2910.211c-3.282-2.083-25.487.03-25.487.03-7.9.6,8.975,27.861,11.508,26.964s17.261-24.911,13.979-26.994" fill="#caba9f"/>
      <path id="Path_13202" data-name="Path 13202" d="M5023.861,2910.2c-1.641-1.19-7.734,14.02-10.16,16.705s-6.056,9.546-5.011,10.312c.313.23.814.131,1.361-.119a5.611,5.611,0,0,0,2.985-3.646c1.669-5.928,12.289-22.19,10.825-23.252" fill="#caba9f"/>
      <path id="Path_13203" data-name="Path 13203" d="M5026.59,2917.278c.146-2.832,1.971-3.579,1.971-3.579a4.877,4.877,0,0,0,.938-.957,1.019,1.019,0,0,0-1.587-1.266,10.238,10.238,0,0,0-1.81,2.673c-1.189,2.535-9.668,16.928-9.442,19.312s-2.659,4.21.452,3.878c1.229-.132,1.247-7.489,4.075-10.548l2.828-3.058s2.429-3.623,2.575-6.455" fill="#caba9f"/>
      <path id="Path_13204" data-name="Path 13204" d="M5050.972,2910.17c-1.461,1.066,9.2,17.3,10.879,23.227a5.613,5.613,0,0,0,2.994,3.639c.548.249,1.049.346,1.361.116,1.043-.769-2.6-7.62-5.035-10.3s-8.561-17.875-10.2-16.681" fill="#caba9f"/>
      <path id="Path_13205" data-name="Path 13205" d="M5058.228,2933.413c.221-2.385-8.292-16.758-9.487-19.291a10.244,10.244,0,0,0-1.816-2.668,1.019,1.019,0,0,0-1.585,1.27,4.879,4.879,0,0,0,.941.954s1.827.743,1.979,3.575,2.59,6.449,2.59,6.449l2.836,3.051c2.835,3.053,2.87,10.41,4.1,10.538,3.112.325.222-1.493.443-3.878" fill="#caba9f"/>
      <path id="Path_13206" data-name="Path 13206" d="M5037.144,2910.566c-2.533.9-17.26,24.912-13.979,26.994s25.487-.029,25.487-.029c7.9-.6-8.975-27.862-11.508-26.965m4.315,8.037s0,.559-.163,3.633c-.12,2.242,3,6.563,4.7,8.737a4.8,4.8,0,0,1,1.02,3.085l-.008.3c-.054,2.068-6.816,2.915-15.816,1.807s-1.91-8.1-.4-11.234c1.029-2.141,4.119-5.877,5.972-8.027a2.008,2.008,0,0,1,2.965-.087Z" fill="#caba9f"/>
      <path id="Path_13207" data-name="Path 13207" d="M5037.915,2923.221s-1.091-.421-3.323,2.18-6.279,7.413-2,7.884,7.965-.066,10.284.127-2.436-4.273-2.746-6.117-.592-4.24-2.212-4.074" fill="#caba9f"/>
      <path id="Path_13208" data-name="Path 13208" d="M5087.355,2910.128c-3.281-2.083-25.487.03-25.487.03-7.9.6,8.975,27.861,11.508,26.964s17.261-24.911,13.979-26.994" fill="#caba9f"/>
      <path id="Path_13209" data-name="Path 13209" d="M5095.4,2910.118c-1.641-1.19-7.734,14.02-10.16,16.705s-6.055,9.546-5.011,10.312c.313.23.814.131,1.361-.119a5.612,5.612,0,0,0,2.985-3.646c1.669-5.928,12.289-22.19,10.825-23.252" fill="#caba9f"/>
      <path id="Path_13210" data-name="Path 13210" d="M5099.454,2911.393a10.254,10.254,0,0,0-1.81,2.672c-1.189,2.536-9.668,16.928-9.442,19.313s-2.659,4.21.452,3.877c1.23-.131,1.247-7.488,4.075-10.547l2.828-3.059s2.43-3.622,2.575-6.454,1.971-3.58,1.971-3.58a4.876,4.876,0,0,0,.939-.956,1.019,1.019,0,0,0-1.588-1.266" fill="#caba9f"/>
      <path id="Path_13211" data-name="Path 13211" d="M4443.231,2955.881c-3.281-2.083-25.487.03-25.487.03-7.9.6,8.975,27.861,11.508,26.964s17.26-24.911,13.979-26.994" fill="#964731"/>
      <path id="Path_13212" data-name="Path 13212" d="M4451.279,2955.871c-1.641-1.189-7.734,14.021-10.16,16.7s-6.055,9.547-5.011,10.313c.313.229.814.13,1.361-.12a5.607,5.607,0,0,0,2.985-3.646c1.669-5.927,12.289-22.19,10.825-23.252" fill="#964731"/>
      <path id="Path_13213" data-name="Path 13213" d="M4454.008,2962.948c.146-2.832,1.971-3.579,1.971-3.579a4.9,4.9,0,0,0,.939-.957,1.019,1.019,0,0,0-1.588-1.266,10.245,10.245,0,0,0-1.81,2.672c-1.19,2.536-9.668,16.929-9.442,19.313s-2.659,4.21.452,3.877c1.229-.131,1.246-7.488,4.075-10.547l2.828-3.058s2.429-3.623,2.575-6.455" fill="#964731"/>
      <path id="Path_13214" data-name="Path 13214" d="M4478.39,2955.84c-1.462,1.066,9.2,17.3,10.879,23.227a5.611,5.611,0,0,0,2.994,3.639c.548.248,1.049.346,1.361.116,1.043-.769-2.6-7.62-5.035-10.3s-8.561-17.875-10.2-16.681" fill="#964731"/>
      <path id="Path_13215" data-name="Path 13215" d="M4485.646,2979.083c.221-2.385-8.292-16.758-9.487-19.291a10.248,10.248,0,0,0-1.816-2.668,1.019,1.019,0,0,0-1.585,1.27,4.889,4.889,0,0,0,.941.954s1.827.743,1.979,3.575,2.59,6.449,2.59,6.449l2.836,3.051c2.835,3.053,2.87,10.41,4.1,10.538,3.112.325.222-1.493.443-3.878" fill="#964731"/>
      <path id="Path_13216" data-name="Path 13216" d="M4406.688,2955.924c-1.462,1.066,9.2,17.3,10.879,23.227a5.612,5.612,0,0,0,2.994,3.639c.548.248,1.049.346,1.361.116,1.043-.769-2.6-7.62-5.035-10.3s-8.561-17.875-10.2-16.681" fill="#964731"/>
      <path id="Path_13217" data-name="Path 13217" d="M4413.944,2979.167c.221-2.385-8.292-16.758-9.487-19.291a10.26,10.26,0,0,0-1.816-2.668,1.019,1.019,0,0,0-1.585,1.27,4.879,4.879,0,0,0,.941.954s1.827.743,1.979,3.575,2.59,6.449,2.59,6.449l2.836,3.051c2.835,3.053,2.87,10.41,4.1,10.538,3.112.325.222-1.493.443-3.878" fill="#964731"/>
      <path id="Path_13218" data-name="Path 13218" d="M4464.562,2956.235c-2.533.9-17.26,24.912-13.979,26.994s25.487-.029,25.487-.029c7.9-.6-8.975-27.862-11.508-26.965m4.315,8.037s0,.559-.163,3.633c-.12,2.242,3,6.563,4.7,8.737a4.8,4.8,0,0,1,1.019,3.085l-.007.3c-.054,2.068-6.816,2.915-15.816,1.807s-1.91-8.1-.4-11.234c1.029-2.141,4.119-5.877,5.972-8.027a2.009,2.009,0,0,1,2.966-.087Z" fill="#964731"/>
      <path id="Path_13219" data-name="Path 13219" d="M4465.333,2968.891s-1.09-.421-3.323,2.18-6.279,7.413-2,7.884,7.965-.066,10.285.127-2.437-4.273-2.746-6.117-.592-4.24-2.213-4.074" fill="#964731"/>
      <path id="Path_13220" data-name="Path 13220" d="M4514.773,2955.8c-3.282-2.083-25.487.03-25.487.03-7.9.6,8.975,27.861,11.508,26.964s17.26-24.911,13.979-26.994" fill="#964731"/>
      <path id="Path_13221" data-name="Path 13221" d="M4522.822,2955.788c-1.641-1.19-7.734,14.02-10.16,16.7s-6.055,9.546-5.011,10.312c.313.23.814.131,1.361-.119a5.611,5.611,0,0,0,2.985-3.646c1.669-5.928,12.289-22.19,10.825-23.252" fill="#964731"/>
      <path id="Path_13222" data-name="Path 13222" d="M4525.55,2962.865c.146-2.832,1.971-3.579,1.971-3.579a4.88,4.88,0,0,0,.938-.957,1.019,1.019,0,0,0-1.587-1.266,10.245,10.245,0,0,0-1.81,2.672c-1.19,2.536-9.668,16.929-9.442,19.313s-2.659,4.21.452,3.877c1.229-.131,1.246-7.488,4.075-10.547l2.828-3.058s2.429-3.623,2.575-6.455" fill="#964731"/>
      <path id="Path_13223" data-name="Path 13223" d="M4549.933,2955.756c-1.462,1.066,9.2,17.3,10.879,23.227a5.615,5.615,0,0,0,2.994,3.639c.548.248,1.049.346,1.362.116,1.042-.769-2.6-7.62-5.036-10.3s-8.561-17.875-10.2-16.681" fill="#964731"/>
      <path id="Path_13224" data-name="Path 13224" d="M4557.189,2979c.221-2.385-8.292-16.758-9.487-19.291a10.256,10.256,0,0,0-1.816-2.668,1.019,1.019,0,0,0-1.585,1.27,4.889,4.889,0,0,0,.941.954s1.827.743,1.979,3.575,2.59,6.449,2.59,6.449l2.836,3.051c2.835,3.053,2.87,10.41,4.1,10.538,3.112.325.222-1.493.443-3.878" fill="#964731"/>
      <path id="Path_13225" data-name="Path 13225" d="M4536.1,2956.152c-2.533.9-17.26,24.912-13.979,26.994s25.487-.029,25.487-.029c7.9-.6-8.975-27.862-11.508-26.965m4.315,8.037s0,.559-.163,3.633c-.12,2.242,3,6.563,4.7,8.737a4.8,4.8,0,0,1,1.02,3.085l-.008.3c-.054,2.068-6.816,2.915-15.816,1.807s-1.91-8.1-.4-11.234c1.029-2.141,4.119-5.877,5.972-8.027a2.009,2.009,0,0,1,2.966-.087Z" fill="#964731"/>
      <path id="Path_13226" data-name="Path 13226" d="M4536.875,2968.807s-1.09-.421-3.323,2.18-6.279,7.413-2,7.884,7.965-.066,10.284.127-2.436-4.273-2.745-6.117-.592-4.24-2.213-4.074" fill="#964731"/>
      <path id="Path_13227" data-name="Path 13227" d="M4586.316,2955.714c-3.281-2.083-25.487.03-25.487.03-7.9.6,8.975,27.861,11.508,26.964s17.26-24.911,13.979-26.994" fill="#964731"/>
      <path id="Path_13228" data-name="Path 13228" d="M4594.364,2955.7c-1.641-1.19-7.734,14.02-10.16,16.7s-6.055,9.546-5.011,10.312c.313.23.814.131,1.361-.119a5.61,5.61,0,0,0,2.985-3.646c1.669-5.928,12.289-22.19,10.825-23.252" fill="#964731"/>
      <path id="Path_13229" data-name="Path 13229" d="M4597.093,2962.781c.146-2.832,1.971-3.579,1.971-3.579a4.88,4.88,0,0,0,.938-.957,1.019,1.019,0,0,0-1.587-1.266,10.259,10.259,0,0,0-1.81,2.672c-1.189,2.536-9.668,16.929-9.442,19.313s-2.659,4.21.452,3.877c1.229-.131,1.247-7.488,4.075-10.547l2.828-3.058s2.429-3.623,2.575-6.455" fill="#964731"/>
      <path id="Path_13230" data-name="Path 13230" d="M4621.475,2955.672c-1.462,1.066,9.2,17.3,10.879,23.227a5.615,5.615,0,0,0,2.994,3.639c.548.249,1.049.346,1.361.116,1.043-.769-2.6-7.62-5.035-10.3s-8.561-17.875-10.2-16.681" fill="#964731"/>
      <path id="Path_13231" data-name="Path 13231" d="M4628.731,2978.915c.221-2.384-8.292-16.758-9.487-19.29a10.26,10.26,0,0,0-1.816-2.668,1.019,1.019,0,0,0-1.585,1.27,4.889,4.889,0,0,0,.941.954s1.827.743,1.979,3.575,2.59,6.448,2.59,6.448l2.836,3.052c2.835,3.052,2.87,10.409,4.1,10.538,3.112.324.222-1.494.443-3.879" fill="#964731"/>
      <path id="Path_13232" data-name="Path 13232" d="M4607.647,2956.068c-2.533.9-17.26,24.912-13.979,26.994s25.487-.029,25.487-.029c7.9-.6-8.975-27.862-11.508-26.965m4.315,8.037s0,.559-.163,3.633c-.12,2.242,3,6.563,4.7,8.737a4.8,4.8,0,0,1,1.02,3.085l-.008.3c-.054,2.068-6.816,2.915-15.816,1.807s-1.91-8.1-.4-11.234c1.029-2.141,4.119-5.877,5.972-8.027a2.009,2.009,0,0,1,2.966-.087Z" fill="#964731"/>
      <path id="Path_13233" data-name="Path 13233" d="M4608.418,2968.723s-1.091-.42-3.323,2.181-6.279,7.412-2,7.883,7.965-.065,10.284.128-2.436-4.273-2.746-6.117-.591-4.24-2.212-4.075" fill="#964731"/>
      <path id="Path_13234" data-name="Path 13234" d="M4657.859,2955.63c-3.282-2.083-25.487.03-25.487.03-7.9.6,8.975,27.861,11.508,26.964s17.26-24.911,13.979-26.994" fill="#964731"/>
      <path id="Path_13235" data-name="Path 13235" d="M4665.907,2955.62c-1.641-1.19-7.734,14.02-10.16,16.7s-6.055,9.546-5.011,10.312c.313.23.814.131,1.361-.119a5.61,5.61,0,0,0,2.985-3.646c1.669-5.928,12.289-22.19,10.825-23.252" fill="#964731"/>
      <path id="Path_13236" data-name="Path 13236" d="M4668.635,2962.7c.146-2.832,1.971-3.579,1.971-3.579a4.877,4.877,0,0,0,.938-.957,1.019,1.019,0,0,0-1.587-1.266,10.259,10.259,0,0,0-1.81,2.672c-1.19,2.536-9.668,16.929-9.442,19.313s-2.659,4.21.452,3.877c1.229-.131,1.246-7.488,4.075-10.547l2.828-3.058s2.429-3.623,2.575-6.455" fill="#964731"/>
      <path id="Path_13237" data-name="Path 13237" d="M4693.018,2955.589c-1.461,1.066,9.2,17.3,10.879,23.227a5.615,5.615,0,0,0,2.994,3.639c.548.249,1.049.346,1.361.116,1.043-.769-2.6-7.62-5.035-10.3s-8.561-17.875-10.2-16.681" fill="#964731"/>
      <path id="Path_13238" data-name="Path 13238" d="M4700.274,2978.832c.221-2.385-8.292-16.758-9.487-19.291a10.256,10.256,0,0,0-1.816-2.668,1.019,1.019,0,0,0-1.585,1.27,4.879,4.879,0,0,0,.941.954s1.827.743,1.979,3.575,2.59,6.449,2.59,6.449l2.836,3.051c2.835,3.053,2.87,10.41,4.1,10.538,3.112.325.222-1.493.443-3.878" fill="#964731"/>
      <path id="Path_13239" data-name="Path 13239" d="M4679.189,2955.984c-2.533.9-17.26,24.912-13.979,26.994s25.487-.029,25.487-.029c7.9-.6-8.975-27.862-11.508-26.965m4.315,8.037s0,.559-.163,3.633c-.12,2.242,3,6.563,4.7,8.737a4.8,4.8,0,0,1,1.02,3.085l-.008.3c-.053,2.068-6.816,2.915-15.816,1.807s-1.909-8.1-.4-11.234c1.029-2.141,4.119-5.877,5.972-8.027a2.009,2.009,0,0,1,2.966-.087Z" fill="#964731"/>
      <path id="Path_13240" data-name="Path 13240" d="M4679.961,2968.64s-1.09-.421-3.323,2.18-6.279,7.413-2,7.884,7.965-.066,10.285.127-2.437-4.273-2.747-6.117-.591-4.24-2.212-4.074" fill="#964731"/>
      <path id="Path_13241" data-name="Path 13241" d="M4728.967,2955.547c-3.281-2.083-25.487.03-25.487.03-7.9.6,8.975,27.861,11.508,26.964s17.26-24.911,13.979-26.994" fill="#964731"/>
      <path id="Path_13242" data-name="Path 13242" d="M4737.016,2955.537c-1.641-1.19-7.734,14.02-10.16,16.7s-6.055,9.546-5.011,10.312c.313.23.814.131,1.361-.119a5.609,5.609,0,0,0,2.985-3.646c1.669-5.928,12.289-22.19,10.825-23.252" fill="#964731"/>
      <path id="Path_13243" data-name="Path 13243" d="M4739.744,2962.614c.146-2.832,1.971-3.579,1.971-3.579a4.9,4.9,0,0,0,.939-.957,1.019,1.019,0,0,0-1.588-1.266,10.248,10.248,0,0,0-1.81,2.673c-1.189,2.535-9.668,16.928-9.442,19.312s-2.659,4.21.452,3.878c1.229-.132,1.246-7.489,4.075-10.548l2.828-3.058s2.429-3.623,2.575-6.455" fill="#964731"/>
      <path id="Path_13244" data-name="Path 13244" d="M4764.127,2955.506c-1.461,1.066,9.2,17.3,10.879,23.227a5.615,5.615,0,0,0,2.994,3.639c.548.249,1.049.346,1.362.116,1.042-.769-2.6-7.62-5.036-10.3s-8.561-17.875-10.2-16.681" fill="#964731"/>
      <path id="Path_13245" data-name="Path 13245" d="M4771.383,2978.749c.221-2.385-8.292-16.758-9.487-19.291a10.256,10.256,0,0,0-1.816-2.668,1.019,1.019,0,0,0-1.585,1.27,4.879,4.879,0,0,0,.941.954s1.827.743,1.979,3.575,2.59,6.449,2.59,6.449l2.836,3.051c2.835,3.053,2.869,10.41,4.1,10.538,3.112.325.222-1.493.443-3.878" fill="#964731"/>
      <path id="Path_13246" data-name="Path 13246" d="M4750.3,2955.9c-2.533.9-17.26,24.912-13.979,26.994s25.487-.029,25.487-.029c7.9-.6-8.975-27.862-11.508-26.965m4.315,8.037s0,.559-.163,3.633c-.12,2.242,3,6.563,4.7,8.737a4.8,4.8,0,0,1,1.02,3.085l-.008.3c-.054,2.068-6.816,2.915-15.816,1.807s-1.909-8.1-.4-11.234c1.029-2.141,4.119-5.877,5.972-8.027a2.009,2.009,0,0,1,2.966-.087Z" fill="#964731"/>
      <path id="Path_13247" data-name="Path 13247" d="M4751.069,2968.557s-1.09-.421-3.323,2.18-6.279,7.413-2,7.884,7.965-.066,10.284.127-2.436-4.273-2.745-6.117-.592-4.24-2.213-4.074" fill="#964731"/>
      <path id="Path_13248" data-name="Path 13248" d="M4800.51,2955.463c-3.282-2.083-25.487.03-25.487.03-7.9.6,8.975,27.861,11.508,26.964s17.26-24.911,13.979-26.994" fill="#964731"/>
      <path id="Path_13249" data-name="Path 13249" d="M4808.558,2955.454c-1.641-1.19-7.734,14.02-10.16,16.7s-6.055,9.546-5.011,10.312c.313.23.814.131,1.361-.119a5.613,5.613,0,0,0,2.986-3.646c1.668-5.928,12.288-22.19,10.824-23.252" fill="#964731"/>
      <path id="Path_13250" data-name="Path 13250" d="M4811.287,2962.53c.145-2.832,1.971-3.579,1.971-3.579a4.877,4.877,0,0,0,.938-.957,1.019,1.019,0,0,0-1.587-1.266,10.25,10.25,0,0,0-1.81,2.673c-1.189,2.535-9.668,16.928-9.442,19.312s-2.659,4.21.452,3.878c1.229-.132,1.246-7.489,4.074-10.548l2.829-3.058s2.429-3.623,2.575-6.455" fill="#964731"/>
      <path id="Path_13251" data-name="Path 13251" d="M4835.669,2955.422c-1.462,1.066,9.2,17.3,10.879,23.227a5.615,5.615,0,0,0,2.994,3.639c.548.249,1.049.346,1.361.116,1.043-.769-2.6-7.62-5.035-10.3s-8.561-17.875-10.2-16.681" fill="#964731"/>
      <path id="Path_13252" data-name="Path 13252" d="M4842.925,2978.665c.221-2.385-8.292-16.758-9.487-19.291a10.256,10.256,0,0,0-1.816-2.668,1.019,1.019,0,0,0-1.585,1.27,4.879,4.879,0,0,0,.941.954s1.827.743,1.979,3.575,2.59,6.449,2.59,6.449l2.836,3.051c2.835,3.053,2.87,10.41,4.1,10.538,3.112.325.222-1.493.443-3.878" fill="#964731"/>
      <path id="Path_13253" data-name="Path 13253" d="M4821.841,2955.818c-2.533.9-17.26,24.912-13.979,26.994s25.487-.029,25.487-.029c7.9-.6-8.976-27.862-11.508-26.965m4.315,8.037s0,.559-.164,3.633c-.119,2.242,3,6.563,4.7,8.737a4.8,4.8,0,0,1,1.019,3.085l-.008.3c-.053,2.068-6.815,2.915-15.815,1.807s-1.91-8.1-.4-11.234c1.029-2.141,4.119-5.877,5.972-8.027a2.008,2.008,0,0,1,2.965-.087Z" fill="#964731"/>
      <path id="Path_13254" data-name="Path 13254" d="M4822.612,2968.473s-1.09-.421-3.323,2.18-6.279,7.413-2,7.884,7.965-.066,10.285.127-2.437-4.273-2.746-6.117-.592-4.24-2.213-4.074" fill="#964731"/>
      <path id="Path_13255" data-name="Path 13255" d="M4872.053,2955.379c-3.282-2.083-25.487.03-25.487.03-7.9.6,8.975,27.861,11.508,26.964s17.261-24.911,13.979-26.994" fill="#964731"/>
      <path id="Path_13256" data-name="Path 13256" d="M4880.1,2955.37c-1.641-1.19-7.734,14.02-10.16,16.7s-6.056,9.546-5.011,10.312c.313.23.814.131,1.361-.119a5.609,5.609,0,0,0,2.985-3.646c1.669-5.928,12.289-22.19,10.825-23.252" fill="#964731"/>
      <path id="Path_13257" data-name="Path 13257" d="M4882.829,2962.447c.146-2.832,1.971-3.579,1.971-3.579a4.877,4.877,0,0,0,.938-.957,1.019,1.019,0,0,0-1.587-1.266,10.248,10.248,0,0,0-1.81,2.673c-1.189,2.535-9.668,16.928-9.442,19.312s-2.659,4.21.452,3.878c1.229-.132,1.247-7.489,4.075-10.548l2.828-3.058s2.429-3.623,2.575-6.455" fill="#964731"/>
      <path id="Path_13258" data-name="Path 13258" d="M4907.212,2955.338c-1.462,1.066,9.2,17.3,10.879,23.227a5.612,5.612,0,0,0,2.994,3.639c.548.249,1.049.346,1.361.116,1.043-.769-2.6-7.62-5.035-10.3s-8.561-17.875-10.2-16.681" fill="#964731"/>
      <path id="Path_13259" data-name="Path 13259" d="M4914.468,2978.581c.221-2.385-8.292-16.758-9.487-19.291a10.256,10.256,0,0,0-1.816-2.668,1.019,1.019,0,0,0-1.585,1.27,4.879,4.879,0,0,0,.941.954s1.827.743,1.979,3.575,2.59,6.449,2.59,6.449l2.836,3.051c2.835,3.053,2.87,10.41,4.1,10.538,3.111.325.221-1.493.442-3.878" fill="#964731"/>
      <path id="Path_13260" data-name="Path 13260" d="M4893.384,2955.734c-2.533.9-17.26,24.912-13.979,26.994s25.487-.029,25.487-.029c7.9-.6-8.975-27.862-11.508-26.965m4.315,8.037s0,.559-.163,3.633c-.12,2.242,3,6.563,4.7,8.737a4.8,4.8,0,0,1,1.02,3.085l-.008.3c-.054,2.068-6.816,2.915-15.816,1.807s-1.91-8.1-.4-11.234c1.029-2.141,4.119-5.877,5.972-8.027a2.008,2.008,0,0,1,2.965-.087Z" fill="#964731"/>
      <path id="Path_13261" data-name="Path 13261" d="M4894.155,2968.389s-1.091-.421-3.323,2.18-6.279,7.413-2,7.884,7.965-.066,10.284.127-2.436-4.273-2.746-6.117-.592-4.24-2.212-4.074" fill="#964731"/>
      <path id="Path_13262" data-name="Path 13262" d="M4943.6,2955.3c-3.282-2.083-25.487.03-25.487.03-7.9.6,8.975,27.861,11.508,26.964s17.261-24.911,13.979-26.994" fill="#964731"/>
      <path id="Path_13263" data-name="Path 13263" d="M4951.644,2955.286c-1.641-1.19-7.734,14.02-10.16,16.705s-6.055,9.546-5.011,10.312c.313.23.814.131,1.361-.119a5.609,5.609,0,0,0,2.985-3.646c1.669-5.928,12.289-22.19,10.825-23.252" fill="#964731"/>
      <path id="Path_13264" data-name="Path 13264" d="M4954.372,2962.363c.146-2.832,1.971-3.579,1.971-3.579a4.877,4.877,0,0,0,.938-.957,1.019,1.019,0,0,0-1.587-1.266,10.25,10.25,0,0,0-1.81,2.673c-1.189,2.535-9.668,16.928-9.442,19.312s-2.659,4.21.452,3.878c1.229-.132,1.247-7.489,4.075-10.548l2.828-3.058s2.43-3.623,2.575-6.455" fill="#964731"/>
      <path id="Path_13265" data-name="Path 13265" d="M4978.755,2955.254c-1.462,1.067,9.2,17.3,10.879,23.228a5.617,5.617,0,0,0,2.994,3.639c.548.249,1.049.346,1.361.116,1.043-.77-2.6-7.621-5.035-10.3s-8.561-17.875-10.2-16.682" fill="#964731"/>
      <path id="Path_13266" data-name="Path 13266" d="M4986.011,2978.5c.221-2.385-8.292-16.758-9.487-19.291a10.256,10.256,0,0,0-1.816-2.668,1.019,1.019,0,0,0-1.585,1.27,4.879,4.879,0,0,0,.941.954s1.827.743,1.979,3.575,2.59,6.449,2.59,6.449l2.836,3.051c2.835,3.053,2.869,10.41,4.1,10.538,3.112.325.222-1.493.443-3.878" fill="#964731"/>
      <path id="Path_13267" data-name="Path 13267" d="M4964.926,2955.65c-2.533.9-17.26,24.912-13.979,26.994s25.487-.029,25.487-.029c7.9-.6-8.975-27.862-11.508-26.965m4.315,8.037s0,.559-.163,3.633c-.12,2.242,3,6.563,4.7,8.737a4.8,4.8,0,0,1,1.02,3.085l-.008.3c-.053,2.068-6.816,2.915-15.816,1.807s-1.909-8.1-.4-11.234c1.029-2.141,4.119-5.877,5.972-8.027a2.01,2.01,0,0,1,2.966-.087Z" fill="#964731"/>
      <path id="Path_13268" data-name="Path 13268" d="M4965.7,2968.306s-1.091-.421-3.323,2.18-6.279,7.413-2,7.884,7.965-.066,10.284.127-2.436-4.273-2.746-6.117-.591-4.24-2.212-4.074" fill="#964731"/>
      <path id="Path_13269" data-name="Path 13269" d="M5015.813,2955.211c-3.282-2.083-25.487.03-25.487.03-7.9.6,8.975,27.861,11.508,26.964s17.261-24.911,13.979-26.994" fill="#964731"/>
      <path id="Path_13270" data-name="Path 13270" d="M5023.861,2955.2c-1.641-1.19-7.734,14.02-10.16,16.705s-6.056,9.546-5.011,10.312c.313.23.814.131,1.361-.119a5.611,5.611,0,0,0,2.985-3.646c1.669-5.928,12.289-22.19,10.825-23.252" fill="#964731"/>
      <path id="Path_13271" data-name="Path 13271" d="M5026.59,2962.278c.146-2.832,1.971-3.579,1.971-3.579a4.877,4.877,0,0,0,.938-.957,1.019,1.019,0,0,0-1.587-1.266,10.238,10.238,0,0,0-1.81,2.673c-1.189,2.535-9.668,16.928-9.442,19.312s-2.659,4.21.452,3.878c1.229-.132,1.247-7.489,4.075-10.548l2.828-3.058s2.429-3.623,2.575-6.455" fill="#964731"/>
      <path id="Path_13272" data-name="Path 13272" d="M5050.972,2955.17c-1.461,1.066,9.2,17.3,10.879,23.227a5.613,5.613,0,0,0,2.994,3.639c.548.249,1.049.346,1.361.116,1.043-.769-2.6-7.62-5.035-10.3s-8.561-17.875-10.2-16.681" fill="#964731"/>
      <path id="Path_13273" data-name="Path 13273" d="M5058.228,2978.413c.221-2.385-8.292-16.758-9.487-19.291a10.244,10.244,0,0,0-1.816-2.668,1.019,1.019,0,0,0-1.585,1.27,4.879,4.879,0,0,0,.941.954s1.827.743,1.979,3.575,2.59,6.449,2.59,6.449l2.836,3.051c2.835,3.053,2.87,10.41,4.1,10.538,3.112.325.222-1.493.443-3.878" fill="#964731"/>
      <path id="Path_13274" data-name="Path 13274" d="M5037.144,2955.566c-2.533.9-17.26,24.912-13.979,26.994s25.487-.029,25.487-.029c7.9-.6-8.975-27.862-11.508-26.965m4.315,8.037s0,.559-.163,3.633c-.12,2.242,3,6.563,4.7,8.737a4.8,4.8,0,0,1,1.02,3.085l-.008.3c-.054,2.068-6.816,2.915-15.816,1.807s-1.91-8.1-.4-11.234c1.029-2.141,4.119-5.877,5.972-8.027a2.008,2.008,0,0,1,2.965-.087Z" fill="#964731"/>
      <path id="Path_13275" data-name="Path 13275" d="M5037.915,2968.221s-1.091-.421-3.323,2.18-6.279,7.413-2,7.884,7.965-.066,10.284.127-2.436-4.273-2.746-6.117-.592-4.24-2.212-4.074" fill="#964731"/>
      <path id="Path_13276" data-name="Path 13276" d="M5087.355,2955.128c-3.281-2.083-25.487.03-25.487.03-7.9.6,8.975,27.861,11.508,26.964s17.261-24.911,13.979-26.994" fill="#964731"/>
      <path id="Path_13277" data-name="Path 13277" d="M5095.4,2955.118c-1.641-1.19-7.734,14.02-10.16,16.705s-6.055,9.546-5.011,10.312c.313.23.814.131,1.361-.119a5.612,5.612,0,0,0,2.985-3.646c1.669-5.928,12.289-22.19,10.825-23.252" fill="#964731"/>
      <path id="Path_13278" data-name="Path 13278" d="M5099.454,2956.393a10.254,10.254,0,0,0-1.81,2.672c-1.189,2.536-9.668,16.928-9.442,19.313s-2.659,4.21.452,3.877c1.23-.131,1.247-7.488,4.075-10.547l2.828-3.059s2.43-3.622,2.575-6.454,1.971-3.58,1.971-3.58a4.876,4.876,0,0,0,.939-.956,1.019,1.019,0,0,0-1.588-1.266" fill="#964731"/>
      <path id="Path_13279" data-name="Path 13279" d="M4443.231,2997.881c-3.281-2.083-25.487.03-25.487.03-7.9.6,8.975,27.861,11.508,26.964s17.26-24.911,13.979-26.994" fill="#7a6a58"/>
      <path id="Path_13280" data-name="Path 13280" d="M4451.279,2997.871c-1.641-1.189-7.734,14.021-10.16,16.7s-6.055,9.547-5.011,10.313c.313.229.814.13,1.361-.12a5.607,5.607,0,0,0,2.985-3.646c1.669-5.927,12.289-22.19,10.825-23.252" fill="#7a6a58"/>
      <path id="Path_13281" data-name="Path 13281" d="M4454.008,3004.948c.146-2.832,1.971-3.579,1.971-3.579a4.9,4.9,0,0,0,.939-.957,1.019,1.019,0,0,0-1.588-1.266,10.245,10.245,0,0,0-1.81,2.672c-1.19,2.536-9.668,16.929-9.442,19.313s-2.659,4.21.452,3.877c1.229-.131,1.246-7.488,4.075-10.547l2.828-3.058s2.429-3.623,2.575-6.455" fill="#7a6a58"/>
      <path id="Path_13282" data-name="Path 13282" d="M4478.39,2997.84c-1.462,1.066,9.2,17.3,10.879,23.227a5.611,5.611,0,0,0,2.994,3.639c.548.248,1.049.346,1.361.116,1.043-.769-2.6-7.62-5.035-10.3s-8.561-17.875-10.2-16.681" fill="#7a6a58"/>
      <path id="Path_13283" data-name="Path 13283" d="M4485.646,3021.083c.221-2.385-8.292-16.758-9.487-19.291a10.248,10.248,0,0,0-1.816-2.668,1.019,1.019,0,0,0-1.585,1.27,4.889,4.889,0,0,0,.941.954s1.827.743,1.979,3.575,2.59,6.449,2.59,6.449l2.836,3.051c2.835,3.053,2.87,10.41,4.1,10.538,3.112.325.222-1.493.443-3.878" fill="#7a6a58"/>
      <path id="Path_13284" data-name="Path 13284" d="M4406.688,2997.924c-1.462,1.066,9.2,17.3,10.879,23.227a5.612,5.612,0,0,0,2.994,3.639c.548.248,1.049.346,1.361.116,1.043-.769-2.6-7.62-5.035-10.3s-8.561-17.875-10.2-16.681" fill="#7a6a58"/>
      <path id="Path_13285" data-name="Path 13285" d="M4413.944,3021.167c.221-2.385-8.292-16.758-9.487-19.291a10.26,10.26,0,0,0-1.816-2.668,1.019,1.019,0,0,0-1.585,1.27,4.879,4.879,0,0,0,.941.954s1.827.743,1.979,3.575,2.59,6.449,2.59,6.449l2.836,3.051c2.835,3.053,2.87,10.41,4.1,10.538,3.112.325.222-1.493.443-3.878" fill="#7a6a58"/>
      <path id="Path_13286" data-name="Path 13286" d="M4464.562,2998.235c-2.533.9-17.26,24.912-13.979,26.994s25.487-.029,25.487-.029c7.9-.6-8.975-27.862-11.508-26.965m4.315,8.037s0,.559-.163,3.633c-.12,2.242,3,6.563,4.7,8.737a4.8,4.8,0,0,1,1.019,3.085l-.007.3c-.054,2.068-6.816,2.915-15.816,1.807s-1.91-8.1-.4-11.234c1.029-2.141,4.119-5.877,5.972-8.027a2.009,2.009,0,0,1,2.966-.087Z" fill="#7a6a58"/>
      <path id="Path_13287" data-name="Path 13287" d="M4465.333,3010.891s-1.09-.421-3.323,2.18-6.279,7.413-2,7.884,7.965-.066,10.285.127-2.437-4.273-2.746-6.117-.592-4.24-2.213-4.074" fill="#7a6a58"/>
      <path id="Path_13288" data-name="Path 13288" d="M4514.773,2997.8c-3.282-2.083-25.487.03-25.487.03-7.9.6,8.975,27.861,11.508,26.964s17.26-24.911,13.979-26.994" fill="#7a6a58"/>
      <path id="Path_13289" data-name="Path 13289" d="M4522.822,2997.788c-1.641-1.19-7.734,14.02-10.16,16.7s-6.055,9.546-5.011,10.312c.313.23.814.131,1.361-.119a5.611,5.611,0,0,0,2.985-3.646c1.669-5.928,12.289-22.19,10.825-23.252" fill="#7a6a58"/>
      <path id="Path_13290" data-name="Path 13290" d="M4525.55,3004.865c.146-2.832,1.971-3.579,1.971-3.579a4.88,4.88,0,0,0,.938-.957,1.019,1.019,0,0,0-1.587-1.266,10.245,10.245,0,0,0-1.81,2.672c-1.19,2.536-9.668,16.929-9.442,19.313s-2.659,4.21.452,3.877c1.229-.131,1.246-7.488,4.075-10.547l2.828-3.058s2.429-3.623,2.575-6.455" fill="#7a6a58"/>
      <path id="Path_13291" data-name="Path 13291" d="M4549.933,2997.756c-1.462,1.066,9.2,17.3,10.879,23.227a5.615,5.615,0,0,0,2.994,3.639c.548.248,1.049.346,1.362.116,1.042-.769-2.6-7.62-5.036-10.3s-8.561-17.875-10.2-16.681" fill="#7a6a58"/>
      <path id="Path_13292" data-name="Path 13292" d="M4557.189,3021c.221-2.385-8.292-16.758-9.487-19.291a10.256,10.256,0,0,0-1.816-2.668,1.019,1.019,0,0,0-1.585,1.27,4.889,4.889,0,0,0,.941.954s1.827.743,1.979,3.575,2.59,6.449,2.59,6.449l2.836,3.051c2.835,3.053,2.87,10.41,4.1,10.538,3.112.325.222-1.493.443-3.878" fill="#7a6a58"/>
      <path id="Path_13293" data-name="Path 13293" d="M4536.1,2998.152c-2.533.9-17.26,24.912-13.979,26.994s25.487-.029,25.487-.029c7.9-.6-8.975-27.862-11.508-26.965m4.315,8.037s0,.559-.163,3.633c-.12,2.242,3,6.563,4.7,8.737a4.8,4.8,0,0,1,1.02,3.085l-.008.3c-.054,2.068-6.816,2.915-15.816,1.807s-1.91-8.1-.4-11.234c1.029-2.141,4.119-5.877,5.972-8.027a2.009,2.009,0,0,1,2.966-.087Z" fill="#7a6a58"/>
      <path id="Path_13294" data-name="Path 13294" d="M4536.875,3010.807s-1.09-.421-3.323,2.18-6.279,7.413-2,7.884,7.965-.066,10.284.127-2.436-4.273-2.745-6.117-.592-4.24-2.213-4.074" fill="#7a6a58"/>
      <path id="Path_13295" data-name="Path 13295" d="M4586.316,2997.714c-3.281-2.083-25.487.03-25.487.03-7.9.6,8.975,27.861,11.508,26.964s17.26-24.911,13.979-26.994" fill="#7a6a58"/>
      <path id="Path_13296" data-name="Path 13296" d="M4594.364,2997.7c-1.641-1.19-7.734,14.02-10.16,16.7s-6.055,9.546-5.011,10.312c.313.23.814.131,1.361-.119a5.61,5.61,0,0,0,2.985-3.646c1.669-5.928,12.289-22.19,10.825-23.252" fill="#7a6a58"/>
      <path id="Path_13297" data-name="Path 13297" d="M4597.093,3004.781c.146-2.832,1.971-3.579,1.971-3.579a4.88,4.88,0,0,0,.938-.957,1.019,1.019,0,0,0-1.587-1.266,10.259,10.259,0,0,0-1.81,2.672c-1.189,2.536-9.668,16.929-9.442,19.313s-2.659,4.21.452,3.877c1.229-.131,1.247-7.488,4.075-10.547l2.828-3.058s2.429-3.623,2.575-6.455" fill="#7a6a58"/>
      <path id="Path_13298" data-name="Path 13298" d="M4621.475,2997.672c-1.462,1.066,9.2,17.3,10.879,23.227a5.615,5.615,0,0,0,2.994,3.639c.548.249,1.049.346,1.361.116,1.043-.769-2.6-7.62-5.035-10.3s-8.561-17.875-10.2-16.681" fill="#7a6a58"/>
      <path id="Path_13299" data-name="Path 13299" d="M4628.731,3020.915c.221-2.384-8.292-16.758-9.487-19.29a10.26,10.26,0,0,0-1.816-2.668,1.019,1.019,0,0,0-1.585,1.27,4.889,4.889,0,0,0,.941.954s1.827.743,1.979,3.575,2.59,6.448,2.59,6.448l2.836,3.052c2.835,3.052,2.87,10.409,4.1,10.538,3.112.324.222-1.494.443-3.879" fill="#7a6a58"/>
      <path id="Path_13300" data-name="Path 13300" d="M4607.647,2998.068c-2.533.9-17.26,24.912-13.979,26.994s25.487-.029,25.487-.029c7.9-.6-8.975-27.862-11.508-26.965m4.315,8.037s0,.559-.163,3.633c-.12,2.242,3,6.563,4.7,8.737a4.8,4.8,0,0,1,1.02,3.085l-.008.3c-.054,2.068-6.816,2.915-15.816,1.807s-1.91-8.1-.4-11.234c1.029-2.141,4.119-5.877,5.972-8.027a2.009,2.009,0,0,1,2.966-.087Z" fill="#7a6a58"/>
      <path id="Path_13301" data-name="Path 13301" d="M4608.418,3010.723s-1.091-.42-3.323,2.181-6.279,7.412-2,7.883,7.965-.065,10.284.128-2.436-4.273-2.746-6.117-.591-4.24-2.212-4.075" fill="#7a6a58"/>
      <path id="Path_13302" data-name="Path 13302" d="M4657.859,2997.63c-3.282-2.083-25.487.03-25.487.03-7.9.6,8.975,27.861,11.508,26.964s17.26-24.911,13.979-26.994" fill="#7a6a58"/>
      <path id="Path_13303" data-name="Path 13303" d="M4665.907,2997.62c-1.641-1.19-7.734,14.02-10.16,16.7s-6.055,9.546-5.011,10.312c.313.23.814.131,1.361-.119a5.61,5.61,0,0,0,2.985-3.646c1.669-5.928,12.289-22.19,10.825-23.252" fill="#7a6a58"/>
      <path id="Path_13304" data-name="Path 13304" d="M4668.635,3004.7c.146-2.832,1.971-3.579,1.971-3.579a4.877,4.877,0,0,0,.938-.957,1.019,1.019,0,0,0-1.587-1.266,10.259,10.259,0,0,0-1.81,2.672c-1.19,2.536-9.668,16.929-9.442,19.313s-2.659,4.21.452,3.877c1.229-.131,1.246-7.488,4.075-10.547l2.828-3.058s2.429-3.623,2.575-6.455" fill="#7a6a58"/>
      <path id="Path_13305" data-name="Path 13305" d="M4693.018,2997.589c-1.461,1.066,9.2,17.3,10.879,23.227a5.615,5.615,0,0,0,2.994,3.639c.548.249,1.049.346,1.361.116,1.043-.769-2.6-7.62-5.035-10.3s-8.561-17.875-10.2-16.681" fill="#7a6a58"/>
      <path id="Path_13306" data-name="Path 13306" d="M4700.274,3020.832c.221-2.385-8.292-16.758-9.487-19.291a10.256,10.256,0,0,0-1.816-2.668,1.019,1.019,0,0,0-1.585,1.27,4.879,4.879,0,0,0,.941.954s1.827.743,1.979,3.575,2.59,6.449,2.59,6.449l2.836,3.051c2.835,3.053,2.87,10.41,4.1,10.538,3.112.325.222-1.493.443-3.878" fill="#7a6a58"/>
      <path id="Path_13307" data-name="Path 13307" d="M4679.189,2997.984c-2.533.9-17.26,24.912-13.979,26.994s25.487-.029,25.487-.029c7.9-.6-8.975-27.862-11.508-26.965m4.315,8.037s0,.559-.163,3.633c-.12,2.242,3,6.563,4.7,8.737a4.8,4.8,0,0,1,1.02,3.085l-.008.3c-.053,2.068-6.816,2.915-15.816,1.807s-1.909-8.1-.4-11.234c1.029-2.141,4.119-5.877,5.972-8.027a2.009,2.009,0,0,1,2.966-.087Z" fill="#7a6a58"/>
      <path id="Path_13308" data-name="Path 13308" d="M4679.961,3010.64s-1.09-.421-3.323,2.18-6.279,7.413-2,7.884,7.965-.066,10.285.127-2.437-4.273-2.747-6.117-.591-4.24-2.212-4.074" fill="#7a6a58"/>
      <path id="Path_13309" data-name="Path 13309" d="M4728.967,2997.547c-3.281-2.083-25.487.03-25.487.03-7.9.6,8.975,27.861,11.508,26.964s17.26-24.911,13.979-26.994" fill="#7a6a58"/>
      <path id="Path_13310" data-name="Path 13310" d="M4737.016,2997.537c-1.641-1.19-7.734,14.02-10.16,16.7s-6.055,9.546-5.011,10.312c.313.23.814.131,1.361-.119a5.609,5.609,0,0,0,2.985-3.646c1.669-5.928,12.289-22.19,10.825-23.252" fill="#7a6a58"/>
      <path id="Path_13311" data-name="Path 13311" d="M4739.744,3004.614c.146-2.832,1.971-3.579,1.971-3.579a4.9,4.9,0,0,0,.939-.957,1.019,1.019,0,0,0-1.588-1.266,10.248,10.248,0,0,0-1.81,2.673c-1.189,2.535-9.668,16.928-9.442,19.312s-2.659,4.21.452,3.878c1.229-.132,1.246-7.489,4.075-10.548l2.828-3.058s2.429-3.623,2.575-6.455" fill="#7a6a58"/>
      <path id="Path_13312" data-name="Path 13312" d="M4764.127,2997.506c-1.461,1.066,9.2,17.3,10.879,23.227a5.615,5.615,0,0,0,2.994,3.639c.548.249,1.049.346,1.362.116,1.042-.769-2.6-7.62-5.036-10.3s-8.561-17.875-10.2-16.681" fill="#7a6a58"/>
      <path id="Path_13313" data-name="Path 13313" d="M4771.383,3020.749c.221-2.385-8.292-16.758-9.487-19.291a10.256,10.256,0,0,0-1.816-2.668,1.019,1.019,0,0,0-1.585,1.27,4.879,4.879,0,0,0,.941.954s1.827.743,1.979,3.575,2.59,6.449,2.59,6.449l2.836,3.051c2.835,3.053,2.869,10.41,4.1,10.538,3.112.325.222-1.493.443-3.878" fill="#7a6a58"/>
      <path id="Path_13314" data-name="Path 13314" d="M4750.3,2997.9c-2.533.9-17.26,24.912-13.979,26.994s25.487-.029,25.487-.029c7.9-.6-8.975-27.862-11.508-26.965m4.315,8.037s0,.559-.163,3.633c-.12,2.242,3,6.563,4.7,8.737a4.8,4.8,0,0,1,1.02,3.085l-.008.3c-.054,2.068-6.816,2.915-15.816,1.807s-1.909-8.1-.4-11.234c1.029-2.141,4.119-5.877,5.972-8.027a2.009,2.009,0,0,1,2.966-.087Z" fill="#7a6a58"/>
      <path id="Path_13315" data-name="Path 13315" d="M4751.069,3010.557s-1.09-.421-3.323,2.18-6.279,7.413-2,7.884,7.965-.066,10.284.127-2.436-4.273-2.745-6.117-.592-4.24-2.213-4.074" fill="#7a6a58"/>
      <path id="Path_13316" data-name="Path 13316" d="M4800.51,2997.463c-3.282-2.083-25.487.03-25.487.03-7.9.6,8.975,27.861,11.508,26.964s17.26-24.911,13.979-26.994" fill="#7a6a58"/>
      <path id="Path_13317" data-name="Path 13317" d="M4808.558,2997.454c-1.641-1.19-7.734,14.02-10.16,16.7s-6.055,9.546-5.011,10.312c.313.23.814.131,1.361-.119a5.613,5.613,0,0,0,2.986-3.646c1.668-5.928,12.288-22.19,10.824-23.252" fill="#7a6a58"/>
      <path id="Path_13318" data-name="Path 13318" d="M4811.287,3004.53c.145-2.832,1.971-3.579,1.971-3.579a4.877,4.877,0,0,0,.938-.957,1.019,1.019,0,0,0-1.587-1.266,10.25,10.25,0,0,0-1.81,2.673c-1.189,2.535-9.668,16.928-9.442,19.312s-2.659,4.21.452,3.878c1.229-.132,1.246-7.489,4.074-10.548l2.829-3.058s2.429-3.623,2.575-6.455" fill="#7a6a58"/>
      <path id="Path_13319" data-name="Path 13319" d="M4835.669,2997.422c-1.462,1.066,9.2,17.3,10.879,23.227a5.615,5.615,0,0,0,2.994,3.639c.548.249,1.049.346,1.361.116,1.043-.769-2.6-7.62-5.035-10.3s-8.561-17.875-10.2-16.681" fill="#7a6a58"/>
      <path id="Path_13320" data-name="Path 13320" d="M4842.925,3020.665c.221-2.385-8.292-16.758-9.487-19.291a10.256,10.256,0,0,0-1.816-2.668,1.019,1.019,0,0,0-1.585,1.27,4.879,4.879,0,0,0,.941.954s1.827.743,1.979,3.575,2.59,6.449,2.59,6.449l2.836,3.051c2.835,3.053,2.87,10.41,4.1,10.538,3.112.325.222-1.493.443-3.878" fill="#7a6a58"/>
      <path id="Path_13321" data-name="Path 13321" d="M4821.841,2997.818c-2.533.9-17.26,24.912-13.979,26.994s25.487-.029,25.487-.029c7.9-.6-8.976-27.862-11.508-26.965m4.315,8.037s0,.559-.164,3.633c-.119,2.242,3,6.563,4.7,8.737a4.8,4.8,0,0,1,1.019,3.085l-.008.3c-.053,2.068-6.815,2.915-15.815,1.807s-1.91-8.1-.4-11.234c1.029-2.141,4.119-5.877,5.972-8.027a2.008,2.008,0,0,1,2.965-.087Z" fill="#7a6a58"/>
      <path id="Path_13322" data-name="Path 13322" d="M4822.612,3010.473s-1.09-.421-3.323,2.18-6.279,7.413-2,7.884,7.965-.066,10.285.127-2.437-4.273-2.746-6.117-.592-4.24-2.213-4.074" fill="#7a6a58"/>
      <path id="Path_13323" data-name="Path 13323" d="M4872.053,2997.379c-3.282-2.083-25.487.03-25.487.03-7.9.6,8.975,27.861,11.508,26.964s17.261-24.911,13.979-26.994" fill="#7a6a58"/>
      <path id="Path_13324" data-name="Path 13324" d="M4880.1,2997.37c-1.641-1.19-7.734,14.02-10.16,16.7s-6.056,9.546-5.011,10.312c.313.23.814.131,1.361-.119a5.609,5.609,0,0,0,2.985-3.646c1.669-5.928,12.289-22.19,10.825-23.252" fill="#7a6a58"/>
      <path id="Path_13325" data-name="Path 13325" d="M4882.829,3004.447c.146-2.832,1.971-3.579,1.971-3.579a4.877,4.877,0,0,0,.938-.957,1.019,1.019,0,0,0-1.587-1.266,10.248,10.248,0,0,0-1.81,2.673c-1.189,2.535-9.668,16.928-9.442,19.312s-2.659,4.21.452,3.878c1.229-.132,1.247-7.489,4.075-10.548l2.828-3.058s2.429-3.623,2.575-6.455" fill="#7a6a58"/>
      <path id="Path_13326" data-name="Path 13326" d="M4907.212,2997.338c-1.462,1.066,9.2,17.3,10.879,23.227a5.612,5.612,0,0,0,2.994,3.639c.548.249,1.049.346,1.361.116,1.043-.769-2.6-7.62-5.035-10.3s-8.561-17.875-10.2-16.681" fill="#7a6a58"/>
      <path id="Path_13327" data-name="Path 13327" d="M4914.468,3020.581c.221-2.385-8.292-16.758-9.487-19.291a10.256,10.256,0,0,0-1.816-2.668,1.019,1.019,0,0,0-1.585,1.27,4.879,4.879,0,0,0,.941.954s1.827.743,1.979,3.575,2.59,6.449,2.59,6.449l2.836,3.051c2.835,3.053,2.87,10.41,4.1,10.538,3.111.325.221-1.493.442-3.878" fill="#7a6a58"/>
      <path id="Path_13328" data-name="Path 13328" d="M4893.384,2997.734c-2.533.9-17.26,24.912-13.979,26.994s25.487-.029,25.487-.029c7.9-.6-8.975-27.862-11.508-26.965m4.315,8.037s0,.559-.163,3.633c-.12,2.242,3,6.563,4.7,8.737a4.8,4.8,0,0,1,1.02,3.085l-.008.3c-.054,2.068-6.816,2.915-15.816,1.807s-1.91-8.1-.4-11.234c1.029-2.141,4.119-5.877,5.972-8.027a2.008,2.008,0,0,1,2.965-.087Z" fill="#7a6a58"/>
      <path id="Path_13329" data-name="Path 13329" d="M4894.155,3010.389s-1.091-.421-3.323,2.18-6.279,7.413-2,7.884,7.965-.066,10.284.127-2.436-4.273-2.746-6.117-.592-4.24-2.212-4.074" fill="#7a6a58"/>
      <path id="Path_13330" data-name="Path 13330" d="M4943.6,2997.3c-3.282-2.083-25.487.03-25.487.03-7.9.6,8.975,27.861,11.508,26.964s17.261-24.911,13.979-26.994" fill="#7a6a58"/>
      <path id="Path_13331" data-name="Path 13331" d="M4951.644,2997.286c-1.641-1.19-7.734,14.02-10.16,16.705s-6.055,9.546-5.011,10.312c.313.23.814.131,1.361-.119a5.609,5.609,0,0,0,2.985-3.646c1.669-5.928,12.289-22.19,10.825-23.252" fill="#7a6a58"/>
      <path id="Path_13332" data-name="Path 13332" d="M4954.372,3004.363c.146-2.832,1.971-3.579,1.971-3.579a4.877,4.877,0,0,0,.938-.957,1.019,1.019,0,0,0-1.587-1.266,10.25,10.25,0,0,0-1.81,2.673c-1.189,2.535-9.668,16.928-9.442,19.312s-2.659,4.21.452,3.878c1.229-.132,1.247-7.489,4.075-10.548l2.828-3.058s2.43-3.623,2.575-6.455" fill="#7a6a58"/>
      <path id="Path_13333" data-name="Path 13333" d="M4978.755,2997.254c-1.462,1.067,9.2,17.3,10.879,23.228a5.617,5.617,0,0,0,2.994,3.639c.548.249,1.049.346,1.361.116,1.043-.77-2.6-7.621-5.035-10.3s-8.561-17.875-10.2-16.682" fill="#7a6a58"/>
      <path id="Path_13334" data-name="Path 13334" d="M4986.011,3020.5c.221-2.385-8.292-16.758-9.487-19.291a10.256,10.256,0,0,0-1.816-2.668,1.019,1.019,0,0,0-1.585,1.27,4.879,4.879,0,0,0,.941.954s1.827.743,1.979,3.575,2.59,6.449,2.59,6.449l2.836,3.051c2.835,3.053,2.869,10.41,4.1,10.538,3.112.325.222-1.493.443-3.878" fill="#7a6a58"/>
      <path id="Path_13335" data-name="Path 13335" d="M4964.926,2997.65c-2.533.9-17.26,24.912-13.979,26.994s25.487-.029,25.487-.029c7.9-.6-8.975-27.862-11.508-26.965m4.315,8.037s0,.559-.163,3.633c-.12,2.242,3,6.563,4.7,8.737a4.8,4.8,0,0,1,1.02,3.085l-.008.3c-.053,2.068-6.816,2.915-15.816,1.807s-1.909-8.1-.4-11.234c1.029-2.141,4.119-5.877,5.972-8.027a2.01,2.01,0,0,1,2.966-.087Z" fill="#7a6a58"/>
      <path id="Path_13336" data-name="Path 13336" d="M4965.7,3010.306s-1.091-.421-3.323,2.18-6.279,7.413-2,7.884,7.965-.066,10.284.127-2.436-4.273-2.746-6.117-.591-4.24-2.212-4.074" fill="#7a6a58"/>
      <path id="Path_13337" data-name="Path 13337" d="M5015.813,2997.211c-3.282-2.083-25.487.03-25.487.03-7.9.6,8.975,27.861,11.508,26.964s17.261-24.911,13.979-26.994" fill="#7a6a58"/>
      <path id="Path_13338" data-name="Path 13338" d="M5023.861,2997.2c-1.641-1.19-7.734,14.02-10.16,16.705s-6.056,9.546-5.011,10.312c.313.23.814.131,1.361-.119a5.611,5.611,0,0,0,2.985-3.646c1.669-5.928,12.289-22.19,10.825-23.252" fill="#7a6a58"/>
      <path id="Path_13339" data-name="Path 13339" d="M5026.59,3004.278c.146-2.832,1.971-3.579,1.971-3.579a4.877,4.877,0,0,0,.938-.957,1.019,1.019,0,0,0-1.587-1.266,10.238,10.238,0,0,0-1.81,2.673c-1.189,2.535-9.668,16.928-9.442,19.312s-2.659,4.21.452,3.878c1.229-.132,1.247-7.489,4.075-10.548l2.828-3.058s2.429-3.623,2.575-6.455" fill="#7a6a58"/>
      <path id="Path_13340" data-name="Path 13340" d="M5050.972,2997.17c-1.461,1.066,9.2,17.3,10.879,23.227a5.613,5.613,0,0,0,2.994,3.639c.548.249,1.049.346,1.361.116,1.043-.769-2.6-7.62-5.035-10.3s-8.561-17.875-10.2-16.681" fill="#7a6a58"/>
      <path id="Path_13341" data-name="Path 13341" d="M5058.228,3020.413c.221-2.385-8.292-16.758-9.487-19.291a10.244,10.244,0,0,0-1.816-2.668,1.019,1.019,0,0,0-1.585,1.27,4.879,4.879,0,0,0,.941.954s1.827.743,1.979,3.575,2.59,6.449,2.59,6.449l2.836,3.051c2.835,3.053,2.87,10.41,4.1,10.538,3.112.325.222-1.493.443-3.878" fill="#7a6a58"/>
      <path id="Path_13342" data-name="Path 13342" d="M5037.144,2997.566c-2.533.9-17.26,24.912-13.979,26.994s25.487-.029,25.487-.029c7.9-.6-8.975-27.862-11.508-26.965m4.315,8.037s0,.559-.163,3.633c-.12,2.242,3,6.563,4.7,8.737a4.8,4.8,0,0,1,1.02,3.085l-.008.3c-.054,2.068-6.816,2.915-15.816,1.807s-1.91-8.1-.4-11.234c1.029-2.141,4.119-5.877,5.972-8.027a2.008,2.008,0,0,1,2.965-.087Z" fill="#7a6a58"/>
      <path id="Path_13343" data-name="Path 13343" d="M5037.915,3010.221s-1.091-.421-3.323,2.18-6.279,7.413-2,7.884,7.965-.066,10.284.127-2.436-4.273-2.746-6.117-.592-4.24-2.212-4.074" fill="#7a6a58"/>
      <path id="Path_13344" data-name="Path 13344" d="M5087.355,2997.128c-3.281-2.083-25.487.03-25.487.03-7.9.6,8.975,27.861,11.508,26.964s17.261-24.911,13.979-26.994" fill="#7a6a58"/>
      <path id="Path_13345" data-name="Path 13345" d="M5095.4,2997.118c-1.641-1.19-7.734,14.02-10.16,16.705s-6.055,9.546-5.011,10.312c.313.23.814.131,1.361-.119a5.612,5.612,0,0,0,2.985-3.646c1.669-5.928,12.289-22.19,10.825-23.252" fill="#7a6a58"/>
      <path id="Path_13346" data-name="Path 13346" d="M5099.454,2998.393a10.254,10.254,0,0,0-1.81,2.672c-1.189,2.536-9.668,16.928-9.442,19.313s-2.659,4.21.452,3.877c1.23-.131,1.247-7.488,4.075-10.547l2.828-3.059s2.43-3.622,2.575-6.454,1.971-3.58,1.971-3.58a4.876,4.876,0,0,0,.939-.956,1.019,1.019,0,0,0-1.588-1.266" fill="#7a6a58"/>
    </g>
  </g>
</svg>
